<svg xmlns="http://www.w3.org/2000/svg" xmlns:xlink="http://www.w3.org/1999/xlink" width="368" zoomAndPan="magnify" viewBox="0 0 375 374.999991" height="200" preserveAspectRatio="xMidYMid meet" version="1.0"><defs><g/><clipPath id="62b1168079"><path d="M 38 124 L 151 124 L 151 273.53125 L 38 273.53125 Z M 38 124 " clip-rule="nonzero"/></clipPath><clipPath id="628a981197"><path d="M 38 123.53125 L 151.5 123.53125 L 151.5 273.53125 L 38 273.53125 Z M 38 123.53125 " clip-rule="nonzero"/></clipPath></defs><g clip-path="url(#62b1168079)"><path fill="#a04955" d="M 135.753906 134.367188 C 135.917969 134.125 135.964844 133.824219 135.878906 133.546875 C 135.796875 133.269531 135.59375 133.042969 135.324219 132.929688 C 134.277344 132.496094 132.152344 131.621094 129.664062 130.777344 C 129.664062 130.777344 126.71875 124.761719 118.5625 125.835938 C 117.710938 125.949219 116.882812 126.1875 116.105469 126.546875 C 113.625 127.703125 108.542969 130.949219 110.699219 137.535156 C 110.699219 137.535156 113.097656 141.75 108.824219 142.945312 C 108.824219 142.945312 107.105469 143.621094 105.335938 143.621094 C 105.335938 143.621094 102.519531 138.316406 99.96875 137.535156 C 99.96875 137.535156 101.167969 124.8125 93.921875 125.121094 C 93.589844 125.132812 93.253906 125.089844 92.933594 124.992188 C 91.523438 124.578125 87.511719 123.558594 83.972656 124.273438 C 83.972656 124.273438 78.710938 124.011719 78.605469 132.179688 C 78.605469 132.179688 75.0625 139.929688 74.023438 140.96875 C 74.023438 140.96875 65.582031 150.125 65.21875 156.105469 C 65.21875 156.105469 58.601562 171.242188 60.738281 172.023438 C 60.738281 172.023438 62.039062 172.488281 62.820312 171.242188 C 62.820312 171.242188 60.390625 177.53125 60.421875 180.523438 C 60.425781 180.664062 60.53125 180.78125 60.667969 180.796875 C 60.808594 180.816406 60.941406 180.730469 60.980469 180.597656 C 61.25 179.703125 61.785156 178.675781 62.820312 178.886719 C 62.820312 178.886719 64.800781 181.8125 64.445312 182.839844 C 64.328125 183.167969 64.390625 183.535156 64.605469 183.8125 C 65.75 185.238281 68.933594 188.382812 74.023438 187.367188 C 74.023438 187.367188 70.949219 192.410156 74.023438 200.316406 C 74.023438 200.316406 69.644531 207.652344 66.882812 216.753906 C 66.882812 216.753906 64.886719 221.242188 61.859375 225.390625 C 61.285156 226.171875 60.617188 226.882812 59.867188 227.496094 C 57.8125 229.183594 52.675781 234.316406 50.554688 244.839844 C 50.5 245.121094 50.417969 245.398438 50.316406 245.664062 C 49.582031 247.550781 46.429688 255.503906 44.261719 258.222656 C 44.105469 258.414062 43.898438 258.558594 43.660156 258.636719 C 43.265625 258.773438 42.582031 259.175781 42.292969 260.394531 C 42.292969 260.394531 40.625 266.636719 39.324219 268.5625 C 39.324219 268.5625 37.5 270.640625 41.5625 271.992188 C 41.5625 271.992188 47.828125 273.273438 52.535156 272.71875 C 52.796875 272.6875 53.0625 272.6875 53.328125 272.722656 C 54.625 272.878906 58.71875 273.359375 60.5625 273.347656 C 60.6875 273.347656 60.8125 273.332031 60.9375 273.300781 C 61.984375 273.058594 66.710938 271.734375 64.480469 268.320312 C 64.308594 268.058594 63.996094 267.929688 63.691406 268 C 63.183594 268.097656 62.121094 268.136719 59.941406 267.734375 L 99.523438 215.199219 C 99.523438 215.199219 100.34375 215.910156 100.875 216.371094 C 101.144531 216.601562 101.527344 216.648438 101.84375 216.480469 C 103.5 215.609375 108.605469 212.886719 109.558594 211.914062 C 109.558594 211.914062 116.773438 214.785156 116.773438 216.753906 C 116.773438 216.753906 113.152344 226.125 115.261719 232.5 C 115.261719 232.5 117.699219 250.214844 116.773438 253.621094 C 116.773438 253.621094 115.066406 263.402344 116.773438 263.597656 C 116.773438 263.597656 120.378906 265.054688 125.644531 262.234375 C 130.886719 259.421875 131.925781 261.023438 134.390625 260.402344 C 134.398438 260.398438 134.410156 260.398438 134.417969 260.394531 C 134.421875 260.394531 142.804688 258.386719 142.753906 255.515625 C 142.753906 255.515625 143.289062 252.792969 137.488281 253.621094 C 137.488281 253.621094 129.398438 253.910156 126.570312 250.503906 C 126.570312 250.503906 124.15625 245.394531 124.507812 239.5625 C 124.515625 239.398438 124.523438 239.234375 124.523438 239.066406 C 124.523438 238.824219 124.523438 238.484375 124.523438 238.484375 L 145.027344 178.515625 C 145.027344 178.515625 149.261719 177.539062 149.402344 170.761719 C 149.402344 170.761719 151.5 170.679688 150.660156 169.480469 C 150.652344 169.46875 150.640625 169.460938 150.628906 169.449219 C 150.410156 169.292969 148.207031 167.722656 147.5 167.21875 C 147.328125 167.097656 147.113281 167.066406 146.914062 167.128906 C 146.535156 167.257812 146.023438 167.628906 146.261719 168.699219 C 146.289062 170.308594 146.058594 170.28125 145.027344 170.339844 C 144.339844 169.628906 142.246094 169.292969 139.417969 173.078125 C 139.417969 173.078125 122.640625 176.320312 118.113281 175.214844 C 117.789062 175.132812 117.578125 174.816406 117.628906 174.488281 C 117.691406 174.09375 117.5625 173.359375 116.773438 172.023438 C 116.773438 172.023438 115.328125 168.6875 115.648438 166.652344 C 115.738281 166.085938 115.667969 165.507812 115.449219 164.980469 C 115.335938 164.710938 115.21875 164.433594 115.125 164.210938 C 115.007812 163.933594 114.988281 163.621094 115.066406 163.328125 C 115.457031 161.804688 116.628906 156.773438 115.859375 153.554688 C 115.859375 153.554688 121.246094 150.839844 121.925781 148.273438 C 121.925781 148.273438 128.121094 150.398438 127.34375 146.191406 C 127.34375 146.191406 128.167969 145.792969 128.121094 145.28125 C 128.121094 145.28125 128.703125 145.070312 128.5625 144.34375 C 128.421875 143.621094 128.28125 143.546875 128.703125 143.246094 C 128.703125 143.246094 128.957031 143.445312 129.304688 143.675781 C 129.484375 143.789062 129.710938 143.789062 129.890625 143.679688 C 130.074219 143.566406 130.175781 143.363281 130.15625 143.152344 C 130.09375 142.207031 130.058594 141.214844 129.898438 140.535156 C 130.683594 138.347656 130.394531 136.640625 129.980469 135.40625 C 129.980469 135.40625 134.777344 135.832031 135.753906 134.367188 Z M 58.878906 267.277344 C 58.878906 267.277344 52.503906 264.917969 53.378906 257.628906 C 53.378906 257.628906 53.738281 252.550781 55.792969 250.652344 C 55.792969 250.652344 63.914062 242.390625 66.535156 235.976562 C 66.535156 235.976562 75.941406 228.277344 77.433594 222.632812 L 82.828125 222.632812 C 82.828125 222.632812 91.125 212.011719 93.003906 210.832031 C 93.003906 210.832031 97.734375 213.449219 97.734375 214.117188 Z M 142.917969 179.402344 C 142.917969 179.402344 140.945312 179.242188 140.144531 178.230469 C 140.144531 178.230469 139.023438 177.964844 136.566406 179.242188 C 136.566406 179.242188 116.660156 186.117188 113.457031 183.613281 C 113.457031 183.613281 108.976562 179.5625 108.066406 175.40625 C 108.066406 175.40625 106.894531 179.667969 105.988281 180.46875 C 105.988281 180.46875 106.679688 184.785156 105.988281 186.808594 C 105.988281 186.808594 106.789062 189.3125 108.066406 189.578125 C 108.066406 189.578125 111.644531 190.164062 115.753906 189.898438 C 115.753906 189.898438 116.042969 188.40625 117.121094 189.578125 C 117.121094 189.578125 120.648438 193.09375 118.199219 192.851562 C 118.199219 192.851562 119.277344 193.980469 118.199219 194.625 C 118.199219 194.625 114.988281 199.035156 113.886719 198.417969 L 127.371094 209.285156 C 127.371094 209.285156 130.269531 210.925781 127.371094 217.097656 C 127.371094 217.097656 126.601562 218.449219 127.371094 221.484375 C 127.371094 221.484375 127.519531 225.054688 126.601562 228.671875 Z M 142.917969 179.402344 " fill-opacity="1" fill-rule="evenodd"/></g><g clip-path="url(#628a981197)"><path fill="#a04955" d="M 135.878906 134.449219 C 135.972656 134.308594 136.03125 134.152344 136.058594 133.992188 C 136.082031 133.832031 136.070312 133.664062 136.023438 133.503906 C 135.976562 133.34375 135.890625 133.199219 135.78125 133.078125 C 135.671875 132.953125 135.539062 132.855469 135.382812 132.792969 C 134.765625 132.535156 133.78125 132.128906 132.566406 131.664062 C 131.726562 131.34375 130.777344 130.996094 129.769531 130.65625 C 129.554688 130.253906 128.140625 127.785156 124.96875 126.433594 C 123.324219 125.738281 121.207031 125.335938 118.542969 125.6875 C 118.109375 125.746094 117.683594 125.835938 117.265625 125.957031 C 116.847656 126.078125 116.4375 126.230469 116.042969 126.414062 C 114.578125 127.09375 112.21875 128.5 110.933594 130.875 C 110.011719 132.582031 109.640625 134.785156 110.558594 137.582031 C 110.5625 137.59375 110.566406 137.601562 110.570312 137.609375 C 110.570312 137.609375 111.523438 139.273438 111.125 140.777344 C 110.902344 141.613281 110.253906 142.390625 108.785156 142.800781 C 108.78125 142.804688 108.773438 142.804688 108.769531 142.808594 C 108.769531 142.808594 108.058594 143.085938 107.078125 143.285156 C 106.574219 143.386719 106.003906 143.464844 105.421875 143.472656 C 105.191406 143.050781 104.066406 141.039062 102.667969 139.433594 C 101.871094 138.519531 100.984375 137.738281 100.125 137.433594 C 100.191406 136.609375 100.488281 131.679688 98.917969 128.289062 C 98.003906 126.320312 96.46875 124.863281 93.917969 124.972656 C 93.757812 124.976562 93.597656 124.96875 93.441406 124.949219 C 93.285156 124.929688 93.128906 124.894531 92.976562 124.847656 C 92.160156 124.609375 90.46875 124.164062 88.503906 123.972656 C 87.0625 123.828125 85.46875 123.820312 83.960938 124.125 C 83.742188 124.117188 81.722656 124.125 80.1875 126.054688 C 79.257812 127.222656 78.503906 129.105469 78.457031 132.144531 C 78.300781 132.488281 76.746094 135.875 75.4375 138.359375 C 74.808594 139.554688 74.242188 140.539062 73.917969 140.863281 C 73.914062 140.867188 73.914062 140.867188 73.914062 140.867188 C 73.914062 140.867188 70.160156 144.9375 67.542969 149.429688 C 66.226562 151.691406 65.199219 154.058594 65.070312 156.070312 C 64.882812 156.5 62.234375 162.609375 60.910156 167.140625 C 60.421875 168.816406 60.113281 170.277344 60.167969 171.167969 C 60.203125 171.707031 60.382812 172.050781 60.683594 172.160156 C 60.6875 172.160156 60.6875 172.164062 60.6875 172.164062 C 60.6875 172.164062 61.304688 172.386719 61.96875 172.144531 C 62.117188 172.089844 62.269531 172.015625 62.414062 171.90625 C 62.050781 172.90625 61.390625 174.808594 60.898438 176.695312 C 60.53125 178.101562 60.261719 179.503906 60.273438 180.523438 C 60.273438 180.523438 60.273438 180.523438 60.273438 180.527344 C 60.273438 180.632812 60.316406 180.730469 60.382812 180.804688 C 60.449219 180.878906 60.542969 180.933594 60.648438 180.945312 C 60.757812 180.960938 60.859375 180.933594 60.945312 180.878906 C 61.027344 180.824219 61.09375 180.742188 61.125 180.640625 C 61.273438 180.140625 61.507812 179.589844 61.882812 179.269531 C 62.109375 179.074219 62.386719 178.96875 62.730469 179.023438 C 62.886719 179.257812 63.535156 180.257812 63.960938 181.222656 C 64.234375 181.839844 64.425781 182.433594 64.304688 182.789062 C 64.238281 182.980469 64.222656 183.179688 64.253906 183.371094 C 64.285156 183.5625 64.363281 183.746094 64.488281 183.90625 C 65.183594 184.769531 66.613281 186.253906 68.753906 187.089844 C 70.125 187.628906 71.792969 187.902344 73.742188 187.570312 C 73.371094 188.316406 72.433594 190.527344 72.511719 193.828125 C 72.554688 195.667969 72.910156 197.847656 73.855469 200.304688 C 73.582031 200.773438 71.800781 203.851562 69.871094 208.285156 C 68.796875 210.746094 67.679688 213.621094 66.746094 216.703125 C 66.683594 216.84375 65.835938 218.71875 64.445312 221.117188 C 63.691406 222.421875 62.773438 223.882812 61.738281 225.300781 C 61.457031 225.6875 61.148438 226.054688 60.820312 226.402344 C 60.492188 226.75 60.140625 227.078125 59.773438 227.382812 C 58.457031 228.457031 55.890625 230.933594 53.648438 235.316406 C 52.363281 237.824219 51.183594 240.957031 50.410156 244.8125 C 50.382812 244.949219 50.347656 245.082031 50.308594 245.214844 C 50.269531 245.347656 50.226562 245.480469 50.175781 245.609375 C 49.730469 246.765625 48.371094 250.199219 46.890625 253.308594 C 45.957031 255.257812 44.980469 257.082031 44.148438 258.128906 C 44.078125 258.214844 43.996094 258.289062 43.90625 258.351562 C 43.816406 258.410156 43.71875 258.460938 43.613281 258.496094 C 43.347656 258.585938 42.960938 258.789062 42.628906 259.246094 C 42.4375 259.515625 42.261719 259.875 42.148438 260.359375 C 42.125 260.4375 41.4375 263.011719 40.605469 265.335938 C 40.152344 266.605469 39.65625 267.800781 39.203125 268.472656 C 39.128906 268.5625 38.414062 269.46875 38.988281 270.484375 C 39.304688 271.039062 40.027344 271.640625 41.515625 272.136719 C 41.523438 272.136719 41.527344 272.140625 41.535156 272.140625 C 41.535156 272.140625 44.636719 272.773438 48.121094 272.957031 C 49.597656 273.035156 51.144531 273.035156 52.554688 272.867188 C 52.679688 272.851562 52.804688 272.84375 52.929688 272.84375 C 53.058594 272.847656 53.183594 272.855469 53.308594 272.867188 C 54.101562 272.964844 55.925781 273.179688 57.648438 273.332031 C 58.765625 273.429688 59.835938 273.5 60.5625 273.496094 C 60.566406 273.496094 60.566406 273.496094 60.566406 273.496094 C 60.632812 273.496094 60.703125 273.492188 60.769531 273.484375 C 60.835938 273.476562 60.902344 273.460938 60.96875 273.449219 C 61.675781 273.28125 64.015625 272.625 64.882812 271.207031 C 65.34375 270.449219 65.410156 269.472656 64.605469 268.238281 C 64.503906 268.082031 64.359375 267.964844 64.191406 267.898438 C 64.027344 267.832031 63.839844 267.8125 63.660156 267.855469 C 63.378906 267.90625 62.921875 267.941406 62.195312 267.890625 C 61.679688 267.855469 61.027344 267.777344 60.207031 267.632812 C 60.207031 267.632812 97.40625 218.257812 99.546875 215.414062 C 99.546875 215.414062 100.777344 216.480469 100.777344 216.480469 C 100.9375 216.617188 101.125 216.699219 101.324219 216.722656 C 101.523438 216.746094 101.726562 216.710938 101.910156 216.613281 C 102.988281 216.046875 105.515625 214.703125 107.417969 213.5625 C 108.398438 212.976562 109.210938 212.4375 109.59375 212.085938 C 110.140625 212.3125 113.105469 213.542969 115.023438 214.886719 C 115.601562 215.289062 116.085938 215.703125 116.367188 216.101562 C 116.519531 216.320312 116.617188 216.527344 116.625 216.726562 C 116.476562 217.109375 114.871094 221.441406 114.519531 226.125 C 114.359375 228.304688 114.464844 230.558594 115.117188 232.53125 C 115.167969 232.90625 116.28125 241.085938 116.6875 247.28125 C 116.875 250.113281 116.914062 252.53125 116.628906 253.582031 C 116.628906 253.585938 116.625 253.589844 116.625 253.59375 C 116.625 253.59375 115.890625 257.8125 115.867188 260.773438 C 115.855469 261.859375 115.949219 262.773438 116.191406 263.273438 C 116.328125 263.550781 116.511719 263.707031 116.734375 263.742188 C 116.929688 263.816406 118.652344 264.421875 121.355469 263.933594 C 122.613281 263.707031 124.085938 263.238281 125.714844 262.363281 C 127.542969 261.382812 128.855469 260.945312 129.894531 260.761719 C 131.828125 260.421875 132.828125 260.949219 134.425781 260.546875 C 134.425781 260.546875 134.453125 260.539062 134.453125 260.539062 C 134.460938 260.539062 134.46875 260.535156 134.476562 260.535156 C 134.476562 260.53125 138.613281 259.539062 141.070312 257.953125 C 142.15625 257.25 142.910156 256.421875 142.902344 255.527344 C 142.929688 255.371094 143.078125 254.101562 141.335938 253.554688 C 140.539062 253.304688 139.324219 253.207031 137.476562 253.472656 C 137.289062 253.476562 133.753906 253.578125 130.601562 252.65625 C 129.058594 252.203125 127.605469 251.507812 126.699219 250.425781 C 126.601562 250.214844 125.644531 248.097656 125.0625 245.121094 C 124.742188 243.476562 124.535156 241.566406 124.65625 239.570312 C 124.65625 239.570312 124.671875 239.066406 124.671875 239.066406 C 124.671875 239.066406 124.671875 238.507812 124.671875 238.507812 C 124.671875 238.507812 145.144531 178.640625 145.144531 178.640625 C 145.5 178.535156 146.9375 178.015625 148.078125 176.28125 C 148.839844 175.121094 149.472656 173.410156 149.546875 170.898438 C 149.839844 170.867188 150.519531 170.761719 150.824219 170.4375 C 151.042969 170.207031 151.117188 169.875 150.78125 169.394531 C 150.78125 169.394531 150.714844 169.328125 150.714844 169.328125 C 150.714844 169.328125 147.585938 167.097656 147.585938 167.097656 C 147.480469 167.023438 147.363281 166.976562 147.238281 166.957031 C 147.117188 166.9375 146.988281 166.949219 146.867188 166.988281 C 146.59375 167.082031 146.261719 167.28125 146.121094 167.71875 C 146.039062 167.964844 146.019531 168.289062 146.113281 168.71875 C 146.121094 169.175781 146.109375 169.492188 146.058594 169.71875 C 146.023438 169.867188 145.976562 169.964844 145.902344 170.03125 C 145.738281 170.167969 145.480469 170.167969 145.085938 170.1875 C 144.625 169.757812 143.675781 169.472656 142.367188 170.132812 C 141.503906 170.566406 140.476562 171.421875 139.332031 172.941406 C 138.675781 173.066406 132.394531 174.257812 126.660156 174.894531 C 123.132812 175.285156 119.8125 175.476562 118.148438 175.070312 C 118.023438 175.039062 117.921875 174.960938 117.855469 174.863281 C 117.789062 174.761719 117.757812 174.636719 117.777344 174.511719 C 117.777344 174.507812 117.777344 174.507812 117.777344 174.507812 C 117.8125 174.269531 117.789062 173.917969 117.609375 173.398438 C 117.476562 173.019531 117.253906 172.546875 116.90625 171.953125 C 116.855469 171.832031 116.234375 170.367188 115.925781 168.824219 C 115.773438 168.078125 115.695312 167.308594 115.796875 166.675781 C 115.84375 166.378906 115.847656 166.078125 115.8125 165.785156 C 115.777344 165.488281 115.703125 165.199219 115.585938 164.921875 C 115.585938 164.921875 115.265625 164.15625 115.265625 164.15625 C 115.210938 164.03125 115.179688 163.898438 115.171875 163.765625 C 115.164062 163.632812 115.175781 163.496094 115.210938 163.367188 C 115.210938 163.367188 115.210938 163.363281 115.210938 163.363281 C 115.460938 162.386719 116.035156 159.964844 116.210938 157.5 C 116.308594 156.148438 116.285156 154.78125 116.03125 153.632812 C 116.503906 153.386719 118.492188 152.316406 120.066406 150.964844 C 120.976562 150.1875 121.742188 149.316406 122.027344 148.460938 C 122.621094 148.644531 124.882812 149.273438 126.304688 148.75 C 127.164062 148.4375 127.746094 147.722656 127.511719 146.269531 C 127.644531 146.195312 127.890625 146.039062 128.058594 145.835938 C 128.175781 145.699219 128.253906 145.539062 128.269531 145.371094 C 128.378906 145.3125 128.550781 145.183594 128.652344 144.957031 C 128.722656 144.800781 128.761719 144.589844 128.707031 144.316406 C 128.640625 143.960938 128.566406 143.769531 128.570312 143.628906 C 128.574219 143.550781 128.617188 143.5 128.703125 143.429688 C 128.703125 143.429688 129.222656 143.800781 129.222656 143.800781 C 129.335938 143.871094 129.464844 143.910156 129.597656 143.910156 C 129.726562 143.910156 129.855469 143.875 129.96875 143.804688 C 130.085938 143.734375 130.175781 143.632812 130.234375 143.519531 C 130.289062 143.402344 130.316406 143.269531 130.304688 143.136719 C 130.269531 142.609375 130.242188 142.0625 130.195312 141.5625 C 130.164062 141.1875 130.117188 140.839844 130.050781 140.542969 C 130.386719 139.601562 130.523438 138.75 130.539062 137.980469 C 130.558594 137.050781 130.398438 136.246094 130.1875 135.574219 C 130.753906 135.609375 132.28125 135.679688 133.625 135.472656 C 134.617188 135.320312 135.507812 135.007812 135.878906 134.449219 Z M 150.539062 169.570312 C 150.753906 169.875 150.746094 170.085938 150.609375 170.234375 C 150.269531 170.589844 149.394531 170.613281 149.394531 170.613281 C 149.316406 170.617188 149.253906 170.679688 149.253906 170.757812 C 149.210938 172.734375 148.820312 174.210938 148.285156 175.308594 C 147.03125 177.890625 144.996094 178.371094 144.996094 178.371094 C 144.945312 178.382812 144.90625 178.417969 144.886719 178.46875 L 124.382812 238.4375 C 124.378906 238.453125 124.375 238.46875 124.375 238.484375 L 124.371094 239.066406 L 124.359375 239.554688 C 124.234375 241.574219 124.445312 243.507812 124.769531 245.179688 C 125.390625 248.355469 126.4375 250.570312 126.4375 250.570312 C 126.441406 250.578125 126.449219 250.589844 126.457031 250.601562 C 127.398438 251.734375 128.90625 252.46875 130.519531 252.941406 C 133.800781 253.902344 137.496094 253.769531 137.496094 253.769531 C 137.5 253.769531 137.507812 253.769531 137.511719 253.765625 C 139.300781 253.511719 140.476562 253.597656 141.246094 253.839844 C 142.816406 254.332031 142.609375 255.488281 142.609375 255.488281 C 142.605469 255.5 142.605469 255.507812 142.605469 255.519531 C 142.613281 255.988281 142.371094 256.429688 141.980469 256.84375 C 141.507812 257.34375 140.816406 257.796875 140.042969 258.203125 C 137.609375 259.480469 134.363281 260.257812 134.363281 260.257812 L 134.382812 260.25 L 134.351562 260.257812 C 132.761719 260.660156 131.765625 260.128906 129.84375 260.46875 C 128.78125 260.65625 127.441406 261.101562 125.574219 262.101562 C 123.976562 262.957031 122.535156 263.417969 121.300781 263.640625 C 118.53125 264.140625 116.828125 263.457031 116.828125 263.457031 C 116.816406 263.453125 116.804688 263.449219 116.789062 263.449219 C 116.578125 263.425781 116.457031 263.203125 116.359375 262.878906 C 116.207031 262.375 116.15625 261.628906 116.164062 260.777344 C 116.1875 257.90625 116.886719 253.839844 116.917969 253.652344 C 117.207031 252.582031 117.171875 250.132812 116.984375 247.261719 C 116.570312 240.910156 115.410156 232.476562 115.410156 232.476562 C 115.410156 232.46875 115.40625 232.460938 115.402344 232.453125 C 114.761719 230.511719 114.65625 228.292969 114.816406 226.148438 C 115.183594 221.285156 116.914062 216.808594 116.914062 216.808594 C 116.917969 216.792969 116.921875 216.773438 116.921875 216.753906 C 116.921875 216.109375 116.207031 215.351562 115.191406 214.640625 C 113.050781 213.144531 109.613281 211.773438 109.613281 211.773438 C 109.558594 211.753906 109.492188 211.765625 109.453125 211.808594 C 109.121094 212.148438 108.28125 212.695312 107.265625 213.308594 C 105.363281 214.445312 102.847656 215.785156 101.773438 216.351562 C 101.644531 216.417969 101.5 216.441406 101.359375 216.425781 C 101.21875 216.410156 101.085938 216.351562 100.972656 216.257812 L 99.621094 215.085938 C 99.589844 215.058594 99.550781 215.046875 99.507812 215.050781 C 99.46875 215.054688 99.429688 215.074219 99.40625 215.109375 L 59.824219 267.648438 C 59.792969 267.6875 59.785156 267.742188 59.804688 267.789062 C 59.824219 267.839844 59.863281 267.875 59.914062 267.882812 C 60.863281 268.054688 61.601562 268.148438 62.175781 268.1875 C 62.945312 268.242188 63.421875 268.203125 63.71875 268.144531 C 63.71875 268.144531 63.722656 268.144531 63.722656 268.144531 C 63.84375 268.117188 63.96875 268.128906 64.078125 268.171875 C 64.191406 268.21875 64.285156 268.296875 64.355469 268.402344 C 65.074219 269.503906 65.039062 270.371094 64.625 271.050781 C 63.804688 272.398438 61.574219 273 60.902344 273.15625 C 60.847656 273.171875 60.789062 273.179688 60.734375 273.1875 C 60.675781 273.195312 60.621094 273.199219 60.5625 273.199219 C 59.839844 273.203125 58.777344 273.132812 57.675781 273.035156 C 55.953125 272.882812 54.132812 272.667969 53.34375 272.574219 C 53.207031 272.554688 53.070312 272.546875 52.929688 272.546875 C 52.792969 272.546875 52.65625 272.554688 52.519531 272.574219 C 51.125 272.734375 49.597656 272.738281 48.136719 272.660156 C 44.785156 272.484375 41.785156 271.886719 41.601562 271.851562 C 40.222656 271.390625 39.542969 270.851562 39.25 270.335938 C 38.742188 269.445312 39.4375 268.660156 39.4375 268.660156 C 39.441406 268.65625 39.445312 268.648438 39.445312 268.644531 C 39.910156 267.960938 40.421875 266.738281 40.886719 265.4375 C 41.734375 263.0625 42.4375 260.433594 42.4375 260.433594 C 42.4375 260.429688 42.4375 260.429688 42.4375 260.429688 C 42.542969 259.992188 42.695312 259.664062 42.871094 259.421875 C 43.152344 259.03125 43.480469 258.855469 43.710938 258.777344 C 43.839844 258.734375 43.964844 258.671875 44.078125 258.59375 C 44.1875 258.515625 44.292969 258.421875 44.378906 258.316406 C 45.222656 257.257812 46.214844 255.410156 47.160156 253.4375 C 48.644531 250.320312 50.003906 246.878906 50.457031 245.71875 C 50.507812 245.578125 50.554688 245.441406 50.597656 245.296875 C 50.636719 245.15625 50.671875 245.015625 50.703125 244.871094 C 51.472656 241.046875 52.640625 237.9375 53.914062 235.453125 C 56.128906 231.125 58.664062 228.675781 59.960938 227.613281 C 60.339844 227.300781 60.703125 226.964844 61.039062 226.609375 C 61.375 226.25 61.6875 225.875 61.980469 225.476562 C 63.023438 224.046875 63.945312 222.578125 64.703125 221.265625 C 66.15625 218.753906 67.019531 216.816406 67.019531 216.816406 C 67.023438 216.808594 67.027344 216.804688 67.027344 216.796875 C 67.960938 213.726562 69.074219 210.855469 70.144531 208.402344 C 72.238281 203.601562 74.152344 200.394531 74.152344 200.394531 C 74.175781 200.355469 74.179688 200.308594 74.160156 200.265625 C 73.210938 197.816406 72.851562 195.648438 72.808594 193.820312 C 72.714844 189.804688 74.148438 187.445312 74.148438 187.445312 C 74.179688 187.394531 74.179688 187.328125 74.144531 187.28125 C 74.109375 187.230469 74.050781 187.207031 73.992188 187.21875 C 71.972656 187.625 70.261719 187.363281 68.859375 186.8125 C 66.785156 186 65.398438 184.558594 64.722656 183.722656 C 64.628906 183.601562 64.570312 183.464844 64.546875 183.324219 C 64.523438 183.179688 64.535156 183.03125 64.585938 182.886719 C 64.699219 182.5625 64.605469 182.058594 64.402344 181.515625 C 63.945312 180.28125 62.945312 178.804688 62.945312 178.804688 C 62.921875 178.773438 62.890625 178.75 62.851562 178.742188 C 62.375 178.644531 61.992188 178.78125 61.6875 179.042969 C 61.273438 179.398438 61.003906 180 60.839844 180.554688 C 60.828125 180.585938 60.808594 180.613281 60.78125 180.628906 C 60.753906 180.648438 60.722656 180.65625 60.6875 180.652344 C 60.65625 180.644531 60.625 180.628906 60.605469 180.605469 C 60.585938 180.582031 60.570312 180.554688 60.570312 180.519531 C 60.558594 179.519531 60.828125 178.148438 61.1875 176.769531 C 61.894531 174.046875 62.960938 171.296875 62.960938 171.296875 C 62.988281 171.222656 62.957031 171.144531 62.886719 171.109375 C 62.820312 171.074219 62.734375 171.097656 62.695312 171.164062 C 62.453125 171.550781 62.15625 171.757812 61.867188 171.863281 C 61.320312 172.0625 60.808594 171.890625 60.789062 171.882812 C 60.570312 171.804688 60.492188 171.535156 60.46875 171.148438 C 60.414062 170.28125 60.71875 168.859375 61.199219 167.222656 C 62.566406 162.542969 65.355469 156.164062 65.355469 156.164062 C 65.359375 156.148438 65.363281 156.132812 65.367188 156.113281 C 65.488281 154.136719 66.503906 151.804688 67.800781 149.578125 C 70.363281 145.179688 74.027344 141.1875 74.128906 141.074219 C 74.464844 140.738281 75.054688 139.726562 75.699219 138.5 C 77.082031 135.871094 78.742188 132.242188 78.742188 132.242188 C 78.75 132.222656 78.757812 132.203125 78.757812 132.179688 C 78.792969 129.214844 79.515625 127.375 80.421875 126.238281 C 81.941406 124.328125 83.964844 124.421875 83.964844 124.421875 C 83.976562 124.421875 83.992188 124.421875 84.003906 124.417969 C 85.484375 124.117188 87.054688 124.128906 88.476562 124.269531 C 90.414062 124.460938 92.082031 124.894531 92.890625 125.132812 C 93.058594 125.1875 93.230469 125.222656 93.402344 125.246094 C 93.578125 125.269531 93.753906 125.277344 93.929688 125.269531 C 96.339844 125.167969 97.78125 126.554688 98.644531 128.414062 C 100.335938 132.0625 99.820312 137.523438 99.820312 137.523438 C 99.8125 137.59375 99.855469 137.65625 99.925781 137.679688 C 100.773438 137.9375 101.652344 138.71875 102.441406 139.628906 C 103.992188 141.410156 105.203125 143.691406 105.203125 143.691406 C 105.226562 143.742188 105.277344 143.769531 105.335938 143.769531 C 105.964844 143.769531 106.589844 143.6875 107.136719 143.578125 C 108.089844 143.386719 108.796875 143.117188 108.871094 143.085938 C 110.476562 142.636719 111.171875 141.769531 111.414062 140.855469 C 111.816406 139.328125 110.929688 137.644531 110.839844 137.476562 C 109.957031 134.785156 110.308594 132.660156 111.195312 131.015625 C 112.445312 128.707031 114.742188 127.347656 116.167969 126.683594 C 116.550781 126.507812 116.945312 126.359375 117.347656 126.242188 C 117.75 126.125 118.164062 126.039062 118.582031 125.984375 C 121.183594 125.640625 123.246094 126.027344 124.851562 126.707031 C 128.199219 128.132812 129.53125 130.84375 129.53125 130.84375 C 129.546875 130.878906 129.578125 130.90625 129.617188 130.917969 C 130.644531 131.265625 131.609375 131.617188 132.460938 131.945312 C 133.671875 132.40625 134.652344 132.8125 135.265625 133.066406 C 135.378906 133.113281 135.480469 133.1875 135.558594 133.273438 C 135.640625 133.363281 135.703125 133.472656 135.738281 133.589844 C 135.773438 133.707031 135.78125 133.828125 135.761719 133.949219 C 135.742188 134.066406 135.699219 134.179688 135.632812 134.285156 C 135.296875 134.789062 134.476562 135.039062 133.578125 135.179688 C 131.925781 135.429688 129.992188 135.257812 129.992188 135.257812 C 129.941406 135.253906 129.894531 135.277344 129.863281 135.316406 C 129.832031 135.355469 129.820312 135.40625 129.835938 135.457031 C 130.070312 136.144531 130.261719 136.984375 130.242188 137.976562 C 130.226562 138.726562 130.089844 139.5625 129.757812 140.484375 C 129.746094 140.511719 129.746094 140.542969 129.75 140.570312 C 129.820312 140.859375 129.867188 141.210938 129.898438 141.589844 C 129.945312 142.085938 129.972656 142.632812 130.003906 143.160156 C 130.003906 143.160156 130.003906 143.164062 130.007812 143.164062 C 130.011719 143.242188 130 143.320312 129.964844 143.386719 C 129.933594 143.453125 129.878906 143.511719 129.8125 143.550781 C 129.746094 143.589844 129.671875 143.613281 129.597656 143.609375 C 129.523438 143.609375 129.449219 143.589844 129.382812 143.550781 C 129.382812 143.550781 128.796875 143.128906 128.796875 143.128906 C 128.742188 143.089844 128.667969 143.085938 128.617188 143.125 C 128.355469 143.3125 128.277344 143.441406 128.273438 143.621094 C 128.269531 143.773438 128.339844 143.984375 128.414062 144.375 C 128.453125 144.570312 128.429688 144.722656 128.378906 144.835938 C 128.277344 145.0625 128.070312 145.140625 128.070312 145.140625 C 128.003906 145.164062 127.964844 145.226562 127.972656 145.292969 C 127.984375 145.421875 127.917969 145.539062 127.832031 145.644531 C 127.621094 145.894531 127.28125 146.058594 127.28125 146.058594 C 127.21875 146.085938 127.1875 146.152344 127.199219 146.21875 C 127.441406 147.535156 126.960938 148.191406 126.199219 148.472656 C 124.628906 149.050781 121.976562 148.128906 121.976562 148.128906 C 121.9375 148.117188 121.894531 148.121094 121.855469 148.140625 C 121.820312 148.160156 121.792969 148.195312 121.78125 148.234375 C 121.554688 149.089844 120.78125 149.960938 119.875 150.738281 C 118.097656 152.257812 115.792969 153.421875 115.792969 153.421875 C 115.730469 153.453125 115.699219 153.519531 115.714844 153.589844 C 115.988281 154.734375 116.011719 156.113281 115.914062 157.476562 C 115.738281 159.917969 115.171875 162.320312 114.921875 163.289062 C 114.878906 163.453125 114.863281 163.621094 114.875 163.785156 C 114.886719 163.949219 114.925781 164.113281 114.988281 164.269531 L 115.3125 165.039062 C 115.417969 165.289062 115.484375 165.550781 115.515625 165.820312 C 115.550781 166.085938 115.546875 166.359375 115.503906 166.628906 C 115.398438 167.296875 115.476562 168.097656 115.632812 168.882812 C 115.960938 170.523438 116.636719 172.082031 116.636719 172.082031 C 116.636719 172.085938 116.640625 172.09375 116.644531 172.097656 C 116.984375 172.671875 117.199219 173.128906 117.328125 173.5 C 117.484375 173.949219 117.515625 174.257812 117.484375 174.464844 C 117.449219 174.667969 117.5 174.867188 117.605469 175.027344 C 117.710938 175.1875 117.878906 175.308594 118.078125 175.359375 C 119.761719 175.769531 123.121094 175.585938 126.695312 175.191406 C 132.765625 174.515625 139.445312 173.222656 139.445312 173.222656 C 139.484375 173.214844 139.515625 173.195312 139.539062 173.167969 C 140.65625 171.667969 141.660156 170.824219 142.5 170.398438 C 143.6875 169.800781 144.539062 170.046875 144.921875 170.441406 C 144.953125 170.472656 144.992188 170.488281 145.039062 170.488281 C 145.558594 170.457031 145.890625 170.433594 146.09375 170.257812 C 146.332031 170.054688 146.429688 169.636719 146.410156 168.699219 C 146.410156 168.6875 146.410156 168.679688 146.40625 168.667969 C 146.324219 168.300781 146.335938 168.023438 146.40625 167.8125 C 146.511719 167.488281 146.757812 167.339844 146.960938 167.273438 C 147.039062 167.246094 147.117188 167.238281 147.195312 167.25 C 147.273438 167.261719 147.347656 167.292969 147.410156 167.339844 Z M 58.824219 267.417969 C 58.886719 267.441406 58.957031 267.417969 58.996094 267.363281 C 58.996094 267.363281 97.855469 214.203125 97.855469 214.203125 C 97.875 214.179688 97.882812 214.148438 97.882812 214.117188 C 97.882812 214.015625 97.816406 213.875 97.675781 213.71875 C 97.457031 213.476562 97.050781 213.160156 96.5625 212.824219 C 95.15625 211.851562 93.078125 210.703125 93.078125 210.703125 C 93.03125 210.675781 92.972656 210.675781 92.925781 210.707031 C 92.324219 211.085938 91.0625 212.421875 89.625 214.078125 C 86.765625 217.375 83.195312 221.925781 82.753906 222.484375 C 82.753906 222.484375 77.433594 222.484375 77.433594 222.484375 C 77.363281 222.484375 77.304688 222.53125 77.289062 222.597656 C 76.792969 224.464844 75.425781 226.554688 73.824219 228.515625 C 70.605469 232.453125 66.441406 235.859375 66.441406 235.859375 C 66.421875 235.875 66.40625 235.898438 66.398438 235.917969 C 65.574219 237.929688 64.210938 240.121094 62.726562 242.179688 C 59.539062 246.609375 55.800781 250.429688 55.6875 250.542969 C 55.007812 251.175781 54.503906 252.144531 54.140625 253.171875 C 53.410156 255.234375 53.234375 257.523438 53.230469 257.617188 C 52.929688 260.105469 53.46875 262.027344 54.308594 263.484375 C 55.96875 266.359375 58.824219 267.417969 58.824219 267.417969 Z M 58.824219 267.09375 C 58.308594 266.878906 55.988281 265.792969 54.566406 263.335938 C 53.753906 261.925781 53.234375 260.0625 53.527344 257.648438 C 53.527344 257.644531 53.527344 257.644531 53.527344 257.640625 C 53.527344 257.640625 53.6875 255.34375 54.421875 253.269531 C 54.769531 252.292969 55.242188 251.363281 55.894531 250.761719 C 55.894531 250.757812 55.898438 250.757812 55.898438 250.757812 C 55.898438 250.757812 59.71875 246.871094 62.96875 242.355469 C 64.460938 240.285156 65.828125 238.085938 66.660156 236.066406 C 67.035156 235.753906 70.976562 232.472656 74.054688 228.703125 C 75.652344 226.746094 77.019531 224.65625 77.546875 222.78125 C 77.546875 222.785156 82.828125 222.785156 82.828125 222.785156 C 82.875 222.785156 82.917969 222.761719 82.945312 222.726562 C 82.945312 222.726562 86.804688 217.785156 89.851562 214.273438 C 91.207031 212.714844 92.394531 211.433594 93.011719 211.007812 C 93.402344 211.226562 95.160156 212.21875 96.394531 213.070312 C 96.855469 213.390625 97.246094 213.6875 97.453125 213.917969 C 97.511719 213.984375 97.558594 214.035156 97.578125 214.078125 C 96.269531 215.867188 60.601562 264.667969 58.824219 267.09375 Z M 143.058594 179.449219 C 143.074219 179.40625 143.066406 179.359375 143.042969 179.320312 C 143.015625 179.28125 142.976562 179.257812 142.929688 179.253906 C 142.929688 179.253906 142.015625 179.179688 141.195312 178.8125 C 140.835938 178.648438 140.492188 178.433594 140.261719 178.136719 C 140.238281 178.113281 140.210938 178.09375 140.175781 178.085938 C 140.175781 178.085938 139.675781 177.960938 138.617188 178.25 C 138.070312 178.398438 137.371094 178.65625 136.507812 179.105469 C 136.160156 179.226562 127.207031 182.296875 120.453125 183.519531 C 118.546875 183.863281 116.820312 184.0625 115.511719 184 C 114.636719 183.960938 113.957031 183.8125 113.554688 183.5 C 113.453125 183.402344 111.351562 181.480469 109.773438 178.957031 C 109.078125 177.84375 108.484375 176.613281 108.214844 175.375 C 108.199219 175.308594 108.140625 175.257812 108.070312 175.257812 C 108.003906 175.257812 107.941406 175.300781 107.925781 175.367188 C 107.925781 175.367188 107.460938 177.046875 106.894531 178.488281 C 106.566406 179.316406 106.214844 180.070312 105.886719 180.355469 C 105.851562 180.390625 105.832031 180.441406 105.839844 180.492188 C 105.839844 180.492188 106.148438 182.410156 106.144531 184.285156 C 106.144531 185.199219 106.070312 186.101562 105.84375 186.761719 C 105.835938 186.789062 105.835938 186.824219 105.84375 186.855469 C 105.84375 186.855469 106.203125 187.980469 106.828125 188.816406 C 107.164062 189.265625 107.574219 189.628906 108.039062 189.726562 C 108.039062 189.726562 108.042969 189.726562 108.042969 189.726562 C 108.042969 189.726562 109.625 189.984375 111.894531 190.082031 C 113.046875 190.132812 114.375 190.136719 115.761719 190.046875 C 115.832031 190.042969 115.886719 189.992188 115.898438 189.925781 C 115.898438 189.925781 115.941406 189.710938 116.054688 189.519531 C 116.117188 189.414062 116.203125 189.3125 116.324219 189.285156 C 116.496094 189.25 116.710938 189.351562 117.011719 189.679688 C 117.011719 189.683594 117.015625 189.683594 117.015625 189.683594 C 117.015625 189.683594 118.597656 191.25 118.878906 192.195312 C 118.925781 192.355469 118.941406 192.492188 118.863281 192.585938 C 118.769531 192.703125 118.5625 192.734375 118.214844 192.703125 C 118.152344 192.695312 118.09375 192.730469 118.066406 192.785156 C 118.039062 192.839844 118.050781 192.90625 118.09375 192.953125 C 118.09375 192.953125 118.46875 193.34375 118.523438 193.785156 C 118.554688 194.03125 118.464844 194.292969 118.125 194.5 C 118.105469 194.507812 118.089844 194.523438 118.078125 194.539062 C 118.078125 194.539062 116.632812 196.527344 115.351562 197.636719 C 114.996094 197.945312 114.652344 198.1875 114.359375 198.285156 C 114.207031 198.335938 114.070312 198.347656 113.960938 198.289062 C 113.890625 198.25 113.808594 198.269531 113.761719 198.335938 C 113.71875 198.398438 113.734375 198.484375 113.792969 198.535156 L 127.277344 209.402344 C 127.285156 209.40625 127.292969 209.414062 127.300781 209.417969 C 127.300781 209.417969 128.488281 210.105469 128.511719 212.261719 C 128.523438 213.410156 128.210938 214.960938 127.238281 217.03125 C 127.207031 217.089844 126.90625 217.664062 126.882812 218.835938 C 126.867188 219.515625 126.945312 220.402344 127.222656 221.507812 C 127.230469 221.671875 127.273438 223.140625 127.070312 225.089844 C 126.957031 226.171875 126.769531 227.398438 126.457031 228.632812 C 126.4375 228.710938 126.480469 228.792969 126.558594 228.8125 C 126.636719 228.835938 126.714844 228.792969 126.742188 228.71875 Z M 142.71875 179.53125 L 127.210938 226.347656 C 127.273438 225.925781 127.324219 225.511719 127.367188 225.121094 C 127.585938 223.027344 127.523438 221.480469 127.523438 221.480469 C 127.523438 221.46875 127.519531 221.460938 127.515625 221.449219 C 127.242188 220.367188 127.164062 219.503906 127.179688 218.839844 C 127.207031 217.703125 127.503906 217.171875 127.503906 217.171875 C 127.503906 217.167969 127.507812 217.164062 127.507812 217.160156 C 128.507812 215.035156 128.824219 213.4375 128.808594 212.257812 C 128.785156 210.023438 127.589844 209.242188 127.457031 209.164062 C 127.457031 209.164062 114.347656 198.597656 114.347656 198.597656 C 114.382812 198.589844 114.417969 198.578125 114.457031 198.566406 C 114.777344 198.460938 115.15625 198.199219 115.546875 197.859375 C 116.765625 196.808594 118.132812 194.96875 118.304688 194.738281 C 118.652344 194.519531 118.792969 194.253906 118.820312 193.992188 C 118.863281 193.621094 118.671875 193.246094 118.511719 193.007812 C 118.808594 192.992188 118.992188 192.898438 119.097656 192.773438 C 119.226562 192.613281 119.246094 192.382812 119.164062 192.109375 C 118.875 191.140625 117.292969 189.539062 117.230469 189.476562 C 116.820312 189.03125 116.496094 188.945312 116.261719 188.996094 C 116.058594 189.039062 115.902344 189.191406 115.800781 189.367188 C 115.714844 189.507812 115.664062 189.65625 115.636719 189.757812 C 114.296875 189.839844 113.019531 189.832031 111.910156 189.785156 C 109.722656 189.691406 108.183594 189.445312 108.097656 189.433594 C 107.695312 189.347656 107.355469 189.023438 107.066406 188.640625 C 106.542969 187.9375 106.214844 187.023438 106.144531 186.808594 C 106.367188 186.128906 106.441406 185.210938 106.445312 184.285156 C 106.445312 182.609375 106.203125 180.902344 106.144531 180.523438 C 106.40625 180.253906 106.691406 179.730469 106.960938 179.113281 C 107.417969 178.050781 107.84375 176.707031 108.058594 175.976562 C 108.375 177.0625 108.910156 178.132812 109.523438 179.117188 C 111.160156 181.738281 113.359375 183.722656 113.359375 183.722656 C 113.359375 183.726562 113.363281 183.726562 113.367188 183.730469 C 113.804688 184.074219 114.542969 184.253906 115.496094 184.300781 C 116.824219 184.359375 118.574219 184.160156 120.507812 183.8125 C 127.414062 182.5625 136.617188 179.382812 136.617188 179.382812 C 136.621094 179.382812 136.628906 179.378906 136.636719 179.375 C 137.480469 178.9375 138.164062 178.679688 138.695312 178.535156 C 139.480469 178.324219 139.925781 178.351562 140.0625 178.367188 C 140.324219 178.675781 140.6875 178.910156 141.070312 179.082031 C 141.707031 179.367188 142.394531 179.488281 142.71875 179.53125 Z M 142.71875 179.53125 " fill-opacity="1" fill-rule="evenodd"/></g><g fill="#a04955" fill-opacity="1"><g transform="translate(151.312495, 202.731176)"><g><path d="M 9.609375 0.28125 C 8.535156 0.28125 7.601562 0.0703125 6.8125 -0.34375 C 6.019531 -0.757812 5.390625 -1.3125 4.921875 -2 L 4.65625 -1.9375 L 4.65625 0 L 2.515625 0 L 2.515625 -20.265625 L 4.65625 -20.265625 L 4.65625 -12.296875 L 4.921875 -12.25 C 6.023438 -13.90625 7.625 -14.734375 9.71875 -14.734375 C 10.914062 -14.734375 11.957031 -14.457031 12.84375 -13.90625 C 13.738281 -13.351562 14.429688 -12.515625 14.921875 -11.390625 C 15.410156 -10.273438 15.65625 -8.882812 15.65625 -7.21875 C 15.65625 -5.582031 15.394531 -4.203125 14.875 -3.078125 C 14.363281 -1.953125 13.648438 -1.109375 12.734375 -0.546875 C 11.828125 0.00390625 10.785156 0.28125 9.609375 0.28125 Z M 9.09375 -1.640625 C 11.976562 -1.640625 13.421875 -3.5 13.421875 -7.21875 C 13.421875 -9.15625 13.046875 -10.570312 12.296875 -11.46875 C 11.546875 -12.363281 10.476562 -12.8125 9.09375 -12.8125 C 7.738281 -12.8125 6.660156 -12.347656 5.859375 -11.421875 C 5.054688 -10.503906 4.65625 -9.101562 4.65625 -7.21875 C 4.65625 -5.34375 5.054688 -3.941406 5.859375 -3.015625 C 6.660156 -2.097656 7.738281 -1.640625 9.09375 -1.640625 Z M 9.09375 -1.640625 "/></g></g></g><g fill="#a04955" fill-opacity="1"><g transform="translate(168.56066, 202.731176)"><g><path d="M 13.78125 -6.734375 L 3.84375 -6.734375 C 3.90625 -4.984375 4.328125 -3.695312 5.109375 -2.875 C 5.890625 -2.050781 6.960938 -1.640625 8.328125 -1.640625 C 9.359375 -1.640625 10.1875 -1.820312 10.8125 -2.1875 C 11.4375 -2.550781 11.929688 -3.128906 12.296875 -3.921875 L 12.5625 -3.921875 L 13.953125 -3.09375 C 13.535156 -2.039062 12.863281 -1.210938 11.9375 -0.609375 C 11.019531 -0.015625 9.816406 0.28125 8.328125 0.28125 C 6.921875 0.28125 5.71875 0.00390625 4.71875 -0.546875 C 3.71875 -1.097656 2.945312 -1.929688 2.40625 -3.046875 C 1.863281 -4.171875 1.59375 -5.5625 1.59375 -7.21875 C 1.59375 -8.863281 1.875 -10.25 2.4375 -11.375 C 3.007812 -12.5 3.789062 -13.335938 4.78125 -13.890625 C 5.78125 -14.453125 6.914062 -14.734375 8.1875 -14.734375 C 10.039062 -14.734375 11.488281 -14.207031 12.53125 -13.15625 C 13.570312 -12.113281 14.097656 -10.566406 14.109375 -8.515625 C 14.109375 -7.710938 14.085938 -7.171875 14.046875 -6.890625 Z M 12 -8.515625 C 11.957031 -10.054688 11.613281 -11.175781 10.96875 -11.875 C 10.320312 -12.570312 9.394531 -12.921875 8.1875 -12.921875 C 6.925781 -12.921875 5.929688 -12.566406 5.203125 -11.859375 C 4.484375 -11.160156 4.046875 -10.046875 3.890625 -8.515625 Z M 12 -8.515625 "/></g></g></g><g fill="#a04955" fill-opacity="1"><g transform="translate(183.973914, 202.731176)"><g><path d="M 9.78125 -2.296875 L 10.453125 -0.765625 C 10.117188 -0.421875 9.671875 -0.160156 9.109375 0.015625 C 8.554688 0.191406 7.957031 0.28125 7.3125 0.28125 C 4.550781 0.28125 3.171875 -1.117188 3.171875 -3.921875 L 3.171875 -12.71875 L 0.65625 -12.71875 L 0.65625 -14.46875 L 3.171875 -14.46875 L 3.171875 -17.53125 L 5.3125 -17.875 L 5.3125 -14.46875 L 9.96875 -14.46875 L 9.96875 -12.71875 L 5.3125 -12.71875 L 5.3125 -4.125 C 5.3125 -2.46875 6.03125 -1.640625 7.46875 -1.640625 C 8.257812 -1.640625 8.9375 -1.859375 9.5 -2.296875 Z M 9.78125 -2.296875 "/></g></g></g><g fill="#a04955" fill-opacity="1"><g transform="translate(194.983382, 202.731176)"><g><path d="M 9.78125 -2.296875 L 10.453125 -0.765625 C 10.117188 -0.421875 9.671875 -0.160156 9.109375 0.015625 C 8.554688 0.191406 7.957031 0.28125 7.3125 0.28125 C 4.550781 0.28125 3.171875 -1.117188 3.171875 -3.921875 L 3.171875 -12.71875 L 0.65625 -12.71875 L 0.65625 -14.46875 L 3.171875 -14.46875 L 3.171875 -17.53125 L 5.3125 -17.875 L 5.3125 -14.46875 L 9.96875 -14.46875 L 9.96875 -12.71875 L 5.3125 -12.71875 L 5.3125 -4.125 C 5.3125 -2.46875 6.03125 -1.640625 7.46875 -1.640625 C 8.257812 -1.640625 8.9375 -1.859375 9.5 -2.296875 Z M 9.78125 -2.296875 "/></g></g></g><g fill="#a04955" fill-opacity="1"><g transform="translate(205.992849, 202.731176)"><g><path d="M 13.78125 -6.734375 L 3.84375 -6.734375 C 3.90625 -4.984375 4.328125 -3.695312 5.109375 -2.875 C 5.890625 -2.050781 6.960938 -1.640625 8.328125 -1.640625 C 9.359375 -1.640625 10.1875 -1.820312 10.8125 -2.1875 C 11.4375 -2.550781 11.929688 -3.128906 12.296875 -3.921875 L 12.5625 -3.921875 L 13.953125 -3.09375 C 13.535156 -2.039062 12.863281 -1.210938 11.9375 -0.609375 C 11.019531 -0.015625 9.816406 0.28125 8.328125 0.28125 C 6.921875 0.28125 5.71875 0.00390625 4.71875 -0.546875 C 3.71875 -1.097656 2.945312 -1.929688 2.40625 -3.046875 C 1.863281 -4.171875 1.59375 -5.5625 1.59375 -7.21875 C 1.59375 -8.863281 1.875 -10.25 2.4375 -11.375 C 3.007812 -12.5 3.789062 -13.335938 4.78125 -13.890625 C 5.78125 -14.453125 6.914062 -14.734375 8.1875 -14.734375 C 10.039062 -14.734375 11.488281 -14.207031 12.53125 -13.15625 C 13.570312 -12.113281 14.097656 -10.566406 14.109375 -8.515625 C 14.109375 -7.710938 14.085938 -7.171875 14.046875 -6.890625 Z M 12 -8.515625 C 11.957031 -10.054688 11.613281 -11.175781 10.96875 -11.875 C 10.320312 -12.570312 9.394531 -12.921875 8.1875 -12.921875 C 6.925781 -12.921875 5.929688 -12.566406 5.203125 -11.859375 C 4.484375 -11.160156 4.046875 -10.046875 3.890625 -8.515625 Z M 12 -8.515625 "/></g></g></g><g fill="#a04955" fill-opacity="1"><g transform="translate(221.406104, 202.731176)"><g><path d="M 2.515625 0 L 2.515625 -14.453125 L 4.546875 -14.453125 L 4.546875 -12.1875 L 4.828125 -12.125 C 5.492188 -13.769531 6.757812 -14.59375 8.625 -14.59375 C 9.613281 -14.59375 10.351562 -14.410156 10.84375 -14.046875 L 10.296875 -12.25 L 10.03125 -12.1875 C 9.488281 -12.457031 8.894531 -12.59375 8.25 -12.59375 C 7.09375 -12.59375 6.203125 -12.160156 5.578125 -11.296875 C 4.960938 -10.429688 4.65625 -9.03125 4.65625 -7.09375 L 4.65625 0 Z M 2.515625 0 "/></g></g></g><g fill="#a04955" fill-opacity="1"><g transform="translate(232.572849, 202.731176)"><g/></g></g><g fill="#a04955" fill-opacity="1"><g transform="translate(239.152317, 202.731176)"><g><path d="M 2.515625 0 L 2.515625 -20.265625 L 4.65625 -20.265625 L 4.65625 -12.40625 L 4.921875 -12.34375 C 5.953125 -13.9375 7.441406 -14.734375 9.390625 -14.734375 C 11.128906 -14.734375 12.390625 -14.289062 13.171875 -13.40625 C 13.960938 -12.519531 14.359375 -11.15625 14.359375 -9.3125 L 14.359375 0 L 12.21875 0 L 12.21875 -9.25 C 12.21875 -10.125 12.101562 -10.828125 11.875 -11.359375 C 11.65625 -11.890625 11.3125 -12.273438 10.84375 -12.515625 C 10.375 -12.753906 9.757812 -12.875 9 -12.875 C 7.6875 -12.875 6.632812 -12.445312 5.84375 -11.59375 C 5.050781 -10.75 4.65625 -9.359375 4.65625 -7.421875 L 4.65625 0 Z M 2.515625 0 "/></g></g></g><g fill="#a04955" fill-opacity="1"><g transform="translate(255.797583, 202.731176)"><g><path d="M 3.59375 -17.25 C 3.132812 -17.25 2.765625 -17.390625 2.484375 -17.671875 C 2.203125 -17.953125 2.0625 -18.3125 2.0625 -18.75 C 2.0625 -19.1875 2.203125 -19.546875 2.484375 -19.828125 C 2.765625 -20.117188 3.132812 -20.265625 3.59375 -20.265625 C 4.039062 -20.265625 4.40625 -20.117188 4.6875 -19.828125 C 4.976562 -19.546875 5.125 -19.1875 5.125 -18.75 C 5.125 -18.3125 4.976562 -17.953125 4.6875 -17.671875 C 4.40625 -17.390625 4.039062 -17.25 3.59375 -17.25 Z M 2.515625 0 L 2.515625 -14.453125 L 4.65625 -14.453125 L 4.65625 0 Z M 2.515625 0 "/></g></g></g><g fill="#a04955" fill-opacity="1"><g transform="translate(262.966853, 202.731176)"><g><path d="M 2.515625 0 L 2.515625 -20.265625 L 4.65625 -20.265625 L 4.65625 -8.421875 L 5 -8.421875 L 10.375 -14.453125 L 12.625 -14.453125 L 12.625 -14.15625 L 6.890625 -7.671875 L 13.171875 -0.328125 L 13.171875 0 L 10.78125 0 L 5 -6.6875 L 4.65625 -6.6875 L 4.65625 0 Z M 2.515625 0 "/></g></g></g><g fill="#a04955" fill-opacity="1"><g transform="translate(276.414131, 202.731176)"><g><path d="M 3.59375 -17.25 C 3.132812 -17.25 2.765625 -17.390625 2.484375 -17.671875 C 2.203125 -17.953125 2.0625 -18.3125 2.0625 -18.75 C 2.0625 -19.1875 2.203125 -19.546875 2.484375 -19.828125 C 2.765625 -20.117188 3.132812 -20.265625 3.59375 -20.265625 C 4.039062 -20.265625 4.40625 -20.117188 4.6875 -19.828125 C 4.976562 -19.546875 5.125 -19.1875 5.125 -18.75 C 5.125 -18.3125 4.976562 -17.953125 4.6875 -17.671875 C 4.40625 -17.390625 4.039062 -17.25 3.59375 -17.25 Z M 2.515625 0 L 2.515625 -14.453125 L 4.65625 -14.453125 L 4.65625 0 Z M 2.515625 0 "/></g></g></g><g fill="#a04955" fill-opacity="1"><g transform="translate(283.5834, 202.731176)"><g><path d="M 2.515625 0 L 2.515625 -14.453125 L 4.546875 -14.453125 L 4.546875 -12.1875 L 4.828125 -12.125 C 5.304688 -12.96875 5.914062 -13.613281 6.65625 -14.0625 C 7.40625 -14.507812 8.316406 -14.734375 9.390625 -14.734375 C 11.128906 -14.734375 12.390625 -14.289062 13.171875 -13.40625 C 13.960938 -12.519531 14.359375 -11.15625 14.359375 -9.3125 L 14.359375 0 L 12.21875 0 L 12.21875 -9.25 C 12.21875 -10.125 12.101562 -10.828125 11.875 -11.359375 C 11.65625 -11.890625 11.3125 -12.273438 10.84375 -12.515625 C 10.375 -12.753906 9.757812 -12.875 9 -12.875 C 7.695312 -12.875 6.644531 -12.441406 5.84375 -11.578125 C 5.050781 -10.722656 4.65625 -9.335938 4.65625 -7.421875 L 4.65625 0 Z M 2.515625 0 "/></g></g></g><g fill="#a04955" fill-opacity="1"><g transform="translate(300.228667, 202.731176)"><g><path d="M 7.4375 6.140625 C 5.164062 6.140625 3.503906 5.757812 2.453125 5 C 1.398438 4.238281 0.875 3.226562 0.875 1.96875 C 0.875 1.15625 1.117188 0.507812 1.609375 0.03125 C 2.097656 -0.445312 2.8125 -0.796875 3.75 -1.015625 L 3.75 -1.28125 C 3.300781 -1.539062 2.960938 -1.835938 2.734375 -2.171875 C 2.515625 -2.515625 2.40625 -2.921875 2.40625 -3.390625 C 2.40625 -3.953125 2.582031 -4.40625 2.9375 -4.75 C 3.289062 -5.101562 3.816406 -5.375 4.515625 -5.5625 L 4.515625 -5.828125 C 2.941406 -6.660156 2.15625 -8.015625 2.15625 -9.890625 C 2.15625 -10.828125 2.367188 -11.660156 2.796875 -12.390625 C 3.234375 -13.128906 3.847656 -13.703125 4.640625 -14.109375 C 5.429688 -14.523438 6.359375 -14.734375 7.421875 -14.734375 C 8.628906 -14.734375 9.640625 -14.46875 10.453125 -13.9375 C 10.765625 -14.269531 10.992188 -14.628906 11.140625 -15.015625 C 11.296875 -15.410156 11.394531 -15.851562 11.4375 -16.34375 L 11.71875 -16.515625 L 13.46875 -16.09375 C 13.382812 -15.363281 13.164062 -14.742188 12.8125 -14.234375 C 12.457031 -13.722656 11.957031 -13.300781 11.3125 -12.96875 L 11.3125 -12.703125 C 11.769531 -12.335938 12.109375 -11.90625 12.328125 -11.40625 C 12.554688 -10.914062 12.671875 -10.34375 12.671875 -9.6875 C 12.671875 -8.78125 12.453125 -7.960938 12.015625 -7.234375 C 11.578125 -6.503906 10.960938 -5.929688 10.171875 -5.515625 C 9.378906 -5.109375 8.460938 -4.90625 7.421875 -4.90625 C 7.296875 -4.90625 7.078125 -4.910156 6.765625 -4.921875 C 6.410156 -4.941406 6.148438 -4.953125 5.984375 -4.953125 C 5.535156 -4.953125 5.175781 -4.832031 4.90625 -4.59375 C 4.632812 -4.363281 4.5 -4.066406 4.5 -3.703125 C 4.5 -3.242188 4.644531 -2.90625 4.9375 -2.6875 C 5.226562 -2.476562 5.710938 -2.359375 6.390625 -2.328125 L 9.796875 -2.21875 C 11.273438 -2.164062 12.367188 -1.820312 13.078125 -1.1875 C 13.796875 -0.550781 14.15625 0.34375 14.15625 1.5 C 14.15625 2.375 13.921875 3.15625 13.453125 3.84375 C 12.992188 4.539062 12.257812 5.097656 11.25 5.515625 C 10.25 5.929688 8.976562 6.140625 7.4375 6.140625 Z M 7.421875 -6.734375 C 8.441406 -6.734375 9.226562 -7 9.78125 -7.53125 C 10.34375 -8.070312 10.625 -8.820312 10.625 -9.78125 C 10.625 -10.769531 10.347656 -11.535156 9.796875 -12.078125 C 9.242188 -12.617188 8.453125 -12.890625 7.421875 -12.890625 C 6.390625 -12.890625 5.601562 -12.617188 5.0625 -12.078125 C 4.519531 -11.546875 4.25 -10.78125 4.25 -9.78125 C 4.25 -8.8125 4.519531 -8.0625 5.0625 -7.53125 C 5.601562 -7 6.390625 -6.734375 7.421875 -6.734375 Z M 7.4375 4.296875 C 8.507812 4.296875 9.382812 4.175781 10.0625 3.9375 C 10.738281 3.707031 11.222656 3.394531 11.515625 3 C 11.816406 2.613281 11.96875 2.179688 11.96875 1.703125 C 11.96875 1.273438 11.882812 0.929688 11.71875 0.671875 C 11.5625 0.410156 11.300781 0.210938 10.9375 0.078125 C 10.582031 -0.0546875 10.097656 -0.140625 9.484375 -0.171875 L 6.234375 -0.328125 L 5.78125 -0.328125 C 3.96875 -0.296875 3.0625 0.40625 3.0625 1.78125 C 3.0625 3.457031 4.519531 4.296875 7.4375 4.296875 Z M 7.4375 4.296875 "/></g></g></g></svg>